G04 MADE WITH FRITZING*
G04 WWW.FRITZING.ORG*
G04 DOUBLE SIDED*
G04 HOLES PLATED*
G04 CONTOUR ON CENTER OF CONTOUR VECTOR*
%ASAXBY*%
%FSLAX23Y23*%
%MOIN*%
%OFA0B0*%
%SFA1.0B1.0*%
%ADD10C,0.090000*%
%ADD11C,0.070000*%
%ADD12C,0.098740*%
%ADD13R,0.000156X0.000156*%
%ADD14R,0.088000X0.048000*%
%ADD15R,0.086614X0.141732*%
%ADD16R,0.059056X0.039361*%
%ADD17R,0.059056X0.039389*%
%ADD18R,0.059056X0.039375*%
%ADD19R,0.139031X0.201451*%
%ADD20R,0.001000X0.001000*%
%LNPASTEMASK1*%
G90*
G70*
G54D10*
X207Y3267D03*
X807Y3267D03*
X807Y2742D03*
X207Y2742D03*
G54D11*
X632Y3304D03*
X632Y3504D03*
G54D10*
X207Y3267D03*
X807Y3267D03*
X807Y2742D03*
X207Y2742D03*
G54D11*
X632Y3304D03*
X632Y3504D03*
G54D12*
X1709Y3025D03*
X1709Y3371D03*
X1709Y3025D03*
X1709Y3371D03*
G54D13*
X2937Y1847D03*
X2937Y1947D03*
G54D14*
X2493Y1807D03*
X2493Y1898D03*
X2493Y1989D03*
G54D15*
X2249Y1898D03*
G54D16*
X2125Y2747D03*
G54D17*
X2125Y2684D03*
G54D18*
X2125Y2621D03*
X2318Y2621D03*
G54D17*
X2318Y2684D03*
G54D16*
X2318Y2747D03*
G54D19*
X1527Y115D03*
X1776Y115D03*
X2694Y117D03*
X2483Y114D03*
X2015Y114D03*
X2250Y114D03*
X80Y110D03*
X312Y110D03*
X554Y113D03*
X1283Y118D03*
X790Y117D03*
X1043Y116D03*
G54D20*
D02*
G04 End of PasteMask1*
M02*