; NON-PLATED HOLES START AT T1
; THROUGH (PLATED) HOLES START AT T100
M48
INCH
T1C0.086614
T100C0.035433
T101C0.039370
T102C0.040000
T103C0.015748
T104C0.035000
T105C0.078740
T106C0.036000
T107C0.055000
T108C0.031496
T109C0.027559
T110C0.038000
%
T1
X032734Y034523
X002219Y018904
T100
X003819Y033041
X006319Y035041
X006319Y033041
X003819Y035041
T101
X029380Y018473
X019847Y030993
X028380Y019473
X029380Y019473
X019847Y031977
X028380Y020473
X029380Y020473
X028380Y017473
X019847Y032962
X029380Y017473
X028380Y018473
T102
X012968Y004310
X006968Y011310
X007968Y011310
X003968Y004310
X004968Y004310
X008968Y011310
X009968Y011310
X005968Y004310
X006968Y004310
X007968Y004310
X004968Y011310
X008968Y004310
X001968Y004310
X009968Y004310
X002968Y004310
X010968Y004310
X011968Y004310
X005968Y011310
T103
X024931Y016663
X002627Y010070
X030077Y016827
X027593Y015702
X026995Y017169
X027557Y016867
X020393Y029397
X002722Y031090
X006168Y025268
X012627Y009010
X024958Y026850
X000994Y017072
T104
X001069Y030041
X025006Y029472
X018689Y005335
X001069Y031041
X004069Y026041
X014142Y025716
X025006Y025472
X001069Y029041
X014673Y010257
X014689Y005335
X005069Y026041
X015673Y010257
X006069Y026041
X016673Y010257
X010142Y025716
T105
X017092Y030245
X017092Y033710
T106
X015627Y021886
X002627Y015886
X009627Y021886
X012627Y021886
X008627Y021886
X014627Y015886
X006627Y021886
X013627Y015886
X005627Y021886
X011627Y015886
X007627Y015886
X010627Y015886
X002627Y021886
X004627Y015886
X003627Y015886
X014627Y021886
X001627Y015886
X013627Y021886
X011627Y021886
X015627Y015886
X007627Y021886
X010627Y021886
X009627Y015886
X012627Y015886
X004627Y021886
X008627Y015886
X003627Y021886
X006627Y015886
X001627Y021886
X005627Y015886
T107
X008069Y032666
X008069Y027416
X002069Y032666
X002069Y027416
T108
X018948Y006817
X020523Y006817
T109
X031450Y016147
X031441Y018377
X031429Y021586
X031450Y017147
X031441Y019377
X031429Y020586
X032192Y001896
X031192Y001896
T110
X010983Y028795
X035726Y012978
X035726Y025978
X026675Y032256
X010984Y029836
X035726Y004978
X035726Y017978
X022052Y006923
X011984Y029836
X035726Y009978
X035726Y031978
X010069Y027227
X035726Y010978
X035726Y023978
X018431Y009347
X011069Y027227
X035726Y015978
X028212Y028303
X035726Y028978
X018431Y010347
X035726Y007978
X027212Y028303
X029212Y028303
X028221Y027286
X027221Y027286
X029221Y027286
X029167Y032122
X035726Y021978
X035726Y013978
X035726Y026978
X035726Y005978
X035726Y018978
X022052Y007923
X035726Y032978
X017967Y028664
X027227Y026258
X029227Y026258
X035726Y011978
X035726Y024978
X035726Y003978
X016967Y028664
X018967Y028664
X028227Y026258
X035726Y016978
X022052Y005923
X035726Y029978
X018431Y011347
X023571Y032230
X035726Y008978
X035726Y030978
X029167Y033122
X035726Y022978
X009983Y028795
X009984Y029836
X035726Y014978
X035726Y027978
X035726Y006978
X035726Y019978
X011983Y028795
X029167Y031122
X035726Y020978
T00
M30
