G04 MADE WITH FRITZING*
G04 WWW.FRITZING.ORG*
G04 DOUBLE SIDED*
G04 HOLES PLATED*
G04 CONTOUR ON CENTER OF CONTOUR VECTOR*
%ASAXBY*%
%FSLAX23Y23*%
%MOIN*%
%OFA0B0*%
%SFA1.0B1.0*%
%ADD10C,0.078000*%
%ADD11C,0.079370*%
%ADD12C,0.070000*%
%ADD13C,0.039370*%
%ADD14C,0.075000*%
%ADD15C,0.090000*%
%ADD16C,0.066000*%
%ADD17C,0.074000*%
%ADD18C,0.098740*%
%ADD19C,0.067559*%
%ADD20R,0.000156X0.000156*%
%ADD21R,0.088000X0.048000*%
%ADD22R,0.086614X0.141732*%
%ADD23R,0.070000X0.069972*%
%ADD24R,0.059056X0.039361*%
%ADD25R,0.059056X0.039389*%
%ADD26R,0.059056X0.039375*%
%ADD27R,0.139031X0.201451*%
%ADD28C,0.008000*%
%ADD29C,0.024000*%
%ADD30R,0.001000X0.001000*%
%LNCOPPER1*%
G90*
G70*
G54D10*
X3573Y3298D03*
X3573Y3198D03*
X3573Y3098D03*
X3573Y2998D03*
X3573Y2898D03*
X3573Y2798D03*
X3573Y2698D03*
X3573Y2598D03*
X3573Y2498D03*
X3573Y2398D03*
X3573Y2298D03*
X3573Y2198D03*
X3573Y2098D03*
X3573Y1998D03*
X3573Y1898D03*
X3573Y1798D03*
X3573Y1698D03*
X3573Y1598D03*
X3573Y1498D03*
X3573Y1398D03*
X3573Y1298D03*
X3573Y1198D03*
X3573Y1098D03*
X3573Y998D03*
X3573Y898D03*
X3573Y798D03*
X3573Y698D03*
X3573Y598D03*
X3573Y498D03*
X3573Y398D03*
G54D11*
X2938Y1747D03*
X2938Y1847D03*
X2938Y1947D03*
X2938Y2047D03*
X2938Y1747D03*
X2938Y1847D03*
X2938Y1947D03*
X2938Y2047D03*
X2838Y2047D03*
X2838Y1947D03*
X2838Y1847D03*
X2838Y1747D03*
G54D12*
X1563Y2189D03*
X1463Y2189D03*
X1363Y2189D03*
X1263Y2189D03*
X1163Y2189D03*
X1063Y2189D03*
X963Y2189D03*
X863Y2189D03*
X763Y2189D03*
X663Y2189D03*
X563Y2189D03*
X463Y2189D03*
X363Y2189D03*
X263Y2189D03*
X163Y2189D03*
X1563Y1589D03*
X1463Y1589D03*
X1363Y1589D03*
X1263Y1589D03*
X1163Y1589D03*
X1063Y1589D03*
X963Y1589D03*
X863Y1589D03*
X763Y1589D03*
X663Y1589D03*
X563Y1589D03*
X463Y1589D03*
X363Y1589D03*
X263Y1589D03*
X163Y1589D03*
G54D13*
X3008Y1683D03*
X2493Y1666D03*
G54D14*
X1469Y534D03*
X1869Y534D03*
X2501Y2947D03*
X2501Y2547D03*
G54D10*
X1107Y2723D03*
X1007Y2723D03*
G54D14*
X1467Y1026D03*
X1567Y1026D03*
X1667Y1026D03*
G54D15*
X207Y3267D03*
X807Y3267D03*
X807Y2742D03*
X207Y2742D03*
G54D12*
X607Y2604D03*
X507Y2604D03*
X407Y2604D03*
X107Y3004D03*
X107Y2904D03*
X107Y3104D03*
X632Y3304D03*
X382Y3304D03*
X382Y3504D03*
X632Y3504D03*
G54D15*
X207Y3267D03*
X807Y3267D03*
X807Y2742D03*
X207Y2742D03*
G54D12*
X607Y2604D03*
X507Y2604D03*
X407Y2604D03*
X107Y3004D03*
X107Y2904D03*
X107Y3104D03*
X632Y3304D03*
X382Y3304D03*
X382Y3504D03*
X632Y3504D03*
G54D16*
X1895Y682D03*
X2052Y682D03*
X1895Y682D03*
X2052Y682D03*
G54D17*
X797Y431D03*
X497Y1131D03*
X397Y431D03*
X997Y431D03*
X597Y431D03*
X197Y431D03*
X897Y431D03*
X697Y431D03*
X497Y431D03*
X297Y431D03*
X997Y1131D03*
X597Y1131D03*
X897Y1131D03*
X797Y1131D03*
X697Y1131D03*
X1297Y431D03*
X1197Y431D03*
X1097Y431D03*
G54D10*
X2923Y2626D03*
X2823Y2626D03*
X2723Y2626D03*
X2921Y2830D03*
X2821Y2830D03*
X2721Y2830D03*
X1198Y2984D03*
X1098Y2984D03*
X998Y2984D03*
X2668Y3226D03*
X2357Y3223D03*
X2917Y3312D03*
X2917Y3212D03*
X2917Y3112D03*
X2922Y2729D03*
X2822Y2729D03*
X2722Y2729D03*
X1198Y2880D03*
X1098Y2880D03*
X998Y2880D03*
X2205Y792D03*
X2205Y692D03*
X2205Y592D03*
X1897Y2866D03*
X1797Y2866D03*
X1697Y2866D03*
X1843Y1135D03*
X1843Y1035D03*
X1843Y935D03*
G54D17*
X1985Y3099D03*
X1985Y3198D03*
X1985Y3296D03*
G54D18*
X1709Y3025D03*
X1709Y3371D03*
G54D17*
X1985Y3099D03*
X1985Y3198D03*
X1985Y3296D03*
G54D18*
X1709Y3025D03*
X1709Y3371D03*
G54D14*
X1014Y2572D03*
X1414Y2572D03*
G54D13*
X263Y1007D03*
X1263Y901D03*
X99Y1707D03*
X617Y2527D03*
X2496Y2685D03*
X272Y3109D03*
X2039Y2940D03*
G54D19*
X3219Y190D03*
X3119Y190D03*
X3143Y2159D03*
X3143Y2059D03*
X3144Y1938D03*
X3144Y1838D03*
X3145Y1715D03*
X3145Y1615D03*
G54D13*
X2700Y1717D03*
X2759Y1570D03*
X2756Y1687D03*
G54D20*
X2937Y1847D03*
X2937Y1947D03*
G54D21*
X2493Y1807D03*
X2493Y1898D03*
X2493Y1989D03*
G54D22*
X2249Y1898D03*
G54D23*
X1563Y2189D03*
G54D24*
X2125Y2747D03*
G54D25*
X2125Y2684D03*
G54D26*
X2125Y2621D03*
X2318Y2621D03*
G54D25*
X2318Y2684D03*
G54D24*
X2318Y2747D03*
G54D27*
X1527Y115D03*
X1776Y115D03*
X2694Y117D03*
X2483Y114D03*
X2015Y114D03*
X2250Y114D03*
X80Y110D03*
X312Y110D03*
X554Y113D03*
X1283Y118D03*
X790Y117D03*
X1043Y116D03*
G54D28*
X1449Y2119D02*
X3012Y2114D01*
D02*
X3012Y2114D02*
X3012Y1951D01*
D02*
X3012Y1951D02*
X2963Y1949D01*
D02*
X1381Y2174D02*
X1449Y2119D01*
D02*
X2493Y1680D02*
X2493Y1789D01*
D02*
X2628Y1645D02*
X2628Y1898D01*
D02*
X2628Y1898D02*
X2532Y1898D01*
D02*
X3008Y1669D02*
X3008Y1645D01*
D02*
X3052Y2486D02*
X163Y2486D01*
D02*
X163Y2486D02*
X163Y2212D01*
D02*
X3052Y3298D02*
X3052Y2486D01*
D02*
X3543Y3298D02*
X3052Y3298D01*
D02*
X263Y2450D02*
X263Y2212D01*
D02*
X3082Y2450D02*
X263Y2450D01*
D02*
X3082Y3203D02*
X3082Y2450D01*
D02*
X3543Y3198D02*
X3082Y3203D01*
D02*
X3118Y2425D02*
X358Y2425D01*
D02*
X358Y2425D02*
X362Y2212D01*
D02*
X3118Y3102D02*
X3118Y2425D01*
D02*
X3543Y3098D02*
X3118Y3102D01*
D02*
X3153Y2400D02*
X464Y2400D01*
D02*
X464Y2400D02*
X463Y2212D01*
D02*
X3153Y2998D02*
X3153Y2400D01*
D02*
X3543Y2998D02*
X3153Y2998D01*
D02*
X3183Y2369D02*
X563Y2369D01*
D02*
X563Y2369D02*
X563Y2212D01*
D02*
X3183Y2898D02*
X3183Y2369D01*
D02*
X3543Y2898D02*
X3183Y2898D01*
D02*
X3209Y2334D02*
X663Y2334D01*
D02*
X663Y2334D02*
X663Y2212D01*
D02*
X3209Y2794D02*
X3209Y2334D01*
D02*
X3548Y2798D02*
X3209Y2794D01*
D02*
X3548Y2698D02*
X3239Y2698D01*
D02*
X3239Y2698D02*
X3239Y2304D01*
D02*
X763Y2304D02*
X763Y2212D01*
D02*
X3239Y2304D02*
X763Y2304D01*
D02*
X3264Y2278D02*
X863Y2278D01*
D02*
X863Y2278D02*
X863Y2212D01*
D02*
X3264Y2598D02*
X3264Y2278D01*
D02*
X3548Y2598D02*
X3264Y2598D01*
D02*
X3289Y2253D02*
X963Y2253D01*
D02*
X963Y2253D02*
X963Y2212D01*
D02*
X3548Y2498D02*
X3289Y2498D01*
D02*
X3289Y2498D02*
X3289Y2253D01*
D02*
X3060Y398D02*
X3060Y1230D01*
D02*
X3060Y1230D02*
X163Y1230D01*
D02*
X3548Y398D02*
X3060Y398D01*
D02*
X163Y1230D02*
X163Y1565D01*
D02*
X3088Y498D02*
X3088Y1260D01*
D02*
X3088Y1260D02*
X263Y1260D01*
D02*
X263Y1260D02*
X263Y1565D01*
D02*
X3548Y498D02*
X3088Y498D01*
D02*
X3114Y598D02*
X3114Y1286D01*
D02*
X3114Y1286D02*
X363Y1286D01*
D02*
X363Y1286D02*
X363Y1565D01*
D02*
X3548Y598D02*
X3114Y598D01*
D02*
X3138Y698D02*
X3138Y1314D01*
D02*
X3138Y1314D02*
X463Y1314D01*
D02*
X463Y1314D02*
X463Y1565D01*
D02*
X3548Y698D02*
X3138Y698D01*
D02*
X3162Y798D02*
X3162Y1340D01*
D02*
X3162Y1340D02*
X563Y1340D01*
D02*
X3548Y798D02*
X3162Y798D01*
D02*
X563Y1340D02*
X563Y1565D01*
D02*
X3190Y898D02*
X3190Y1366D01*
D02*
X3190Y1366D02*
X663Y1366D01*
D02*
X3548Y898D02*
X3190Y898D01*
D02*
X663Y1366D02*
X663Y1565D01*
D02*
X3220Y998D02*
X3220Y1392D01*
D02*
X3220Y1392D02*
X763Y1392D01*
D02*
X763Y1392D02*
X763Y1565D01*
D02*
X3548Y998D02*
X3220Y998D01*
D02*
X3246Y1098D02*
X3246Y1418D01*
D02*
X3246Y1418D02*
X863Y1418D01*
D02*
X863Y1418D02*
X863Y1565D01*
D02*
X3548Y1098D02*
X3246Y1098D01*
D02*
X3272Y1198D02*
X3272Y1444D01*
D02*
X3272Y1444D02*
X963Y1444D01*
D02*
X963Y1444D02*
X963Y1565D01*
D02*
X3548Y1198D02*
X3272Y1198D01*
D02*
X3300Y1470D02*
X1063Y1470D01*
D02*
X3296Y1298D02*
X3300Y1470D01*
D02*
X1063Y1470D02*
X1063Y1565D01*
D02*
X3548Y1298D02*
X3296Y1298D01*
D02*
X3324Y1498D02*
X1163Y1498D01*
D02*
X3324Y1398D02*
X3324Y1498D01*
D02*
X1163Y1498D02*
X1163Y1565D01*
D02*
X3548Y1398D02*
X3324Y1398D01*
D02*
X3354Y1522D02*
X1263Y1522D01*
D02*
X1263Y1522D02*
X1263Y1565D01*
D02*
X3548Y1498D02*
X3354Y1498D01*
D02*
X3354Y1498D02*
X3354Y1522D01*
D02*
X85Y337D02*
X82Y205D01*
D02*
X177Y415D02*
X85Y337D01*
D02*
X311Y205D02*
X310Y344D01*
D02*
X310Y344D02*
X301Y406D01*
D02*
X397Y226D02*
X397Y405D01*
D02*
X490Y159D02*
X397Y226D01*
D02*
X677Y231D02*
X503Y238D01*
D02*
X503Y238D02*
X498Y406D01*
D02*
X726Y181D02*
X677Y231D01*
D02*
X957Y217D02*
X599Y266D01*
D02*
X599Y266D02*
X597Y405D01*
D02*
X979Y192D02*
X957Y217D01*
D02*
X1191Y222D02*
X696Y285D01*
D02*
X696Y285D02*
X697Y405D01*
D02*
X1219Y190D02*
X1191Y222D01*
D02*
X1426Y227D02*
X799Y302D01*
D02*
X1463Y186D02*
X1426Y227D01*
D02*
X799Y302D02*
X797Y405D01*
D02*
X1711Y236D02*
X901Y319D01*
D02*
X1725Y210D02*
X1711Y236D01*
D02*
X901Y319D02*
X898Y406D01*
D02*
X1992Y241D02*
X999Y338D01*
D02*
X999Y338D02*
X997Y405D01*
D02*
X1998Y209D02*
X1992Y241D01*
D02*
X2263Y269D02*
X1099Y358D01*
D02*
X2258Y209D02*
X2263Y269D01*
D02*
X1099Y358D02*
X1098Y406D01*
D02*
X1197Y381D02*
X1197Y405D01*
D02*
X2478Y290D02*
X1197Y381D01*
D02*
X2480Y209D02*
X2478Y290D01*
D02*
X2700Y348D02*
X1297Y403D01*
D02*
X1297Y403D02*
X1297Y405D01*
D02*
X2696Y212D02*
X2700Y348D01*
D02*
X997Y1105D02*
X997Y1007D01*
D02*
X997Y1007D02*
X276Y1007D01*
D02*
X1567Y1135D02*
X1567Y1054D01*
D02*
X1813Y1135D02*
X1567Y1135D01*
D02*
X2186Y577D02*
X2129Y534D01*
D02*
X2175Y792D02*
X2052Y792D01*
G54D29*
D02*
X1843Y1065D02*
X1843Y1105D01*
D02*
X1843Y965D02*
X1843Y1005D01*
D02*
X2205Y723D02*
X2205Y762D01*
D02*
X2205Y623D02*
X2205Y662D01*
G54D28*
D02*
X2052Y792D02*
X2052Y709D01*
D02*
X2129Y534D02*
X1892Y534D01*
D02*
X1263Y681D02*
X1263Y888D01*
D02*
X1667Y681D02*
X1263Y681D01*
D02*
X1667Y1003D02*
X1667Y681D01*
D02*
X1667Y681D02*
X1667Y621D01*
D02*
X1667Y621D02*
X1819Y621D01*
D02*
X1819Y621D02*
X1878Y668D01*
D02*
X507Y2880D02*
X507Y2633D01*
D02*
X968Y2880D02*
X507Y2880D01*
D02*
X746Y2984D02*
X746Y3085D01*
D02*
X317Y3085D02*
X317Y3004D01*
D02*
X317Y3004D02*
X136Y3004D01*
D02*
X746Y3085D02*
X317Y3085D01*
D02*
X968Y2984D02*
X746Y2984D01*
D02*
X1897Y2897D02*
X1897Y3198D01*
D02*
X1897Y3198D02*
X1960Y3198D01*
G54D29*
D02*
X1068Y2880D02*
X1028Y2880D01*
D02*
X1168Y2880D02*
X1128Y2880D01*
D02*
X1068Y2984D02*
X1029Y2984D01*
D02*
X1168Y2984D02*
X1129Y2984D01*
D02*
X1077Y2723D02*
X1037Y2723D01*
D02*
X1767Y2866D02*
X1727Y2866D01*
D02*
X1867Y2866D02*
X1827Y2866D01*
D02*
X2917Y3182D02*
X2917Y3142D01*
D02*
X2917Y3282D02*
X2917Y3242D01*
G54D28*
D02*
X90Y2807D02*
X107Y2807D01*
D02*
X107Y2807D02*
X107Y2881D01*
D02*
X557Y2517D02*
X91Y2516D01*
D02*
X695Y2514D02*
X630Y2525D01*
D02*
X630Y2604D02*
X697Y2604D01*
D02*
X91Y2516D02*
X90Y2807D01*
D02*
X697Y2604D02*
X695Y2514D01*
D02*
X604Y2525D02*
X557Y2517D01*
D02*
X1263Y2048D02*
X1263Y2165D01*
D02*
X91Y2048D02*
X1263Y2048D01*
D02*
X91Y2516D02*
X91Y2048D01*
D02*
X113Y1707D02*
X1263Y1707D01*
D02*
X1263Y1707D02*
X1263Y1612D01*
D02*
X2698Y2626D02*
X2349Y2621D01*
D02*
X2601Y2947D02*
X2601Y2830D01*
D02*
X2524Y2947D02*
X2601Y2947D01*
D02*
X2601Y2830D02*
X2697Y2830D01*
D02*
X2482Y2685D02*
X2349Y2684D01*
D02*
X2460Y2833D02*
X2460Y2729D01*
D02*
X2460Y2729D02*
X2698Y2729D01*
D02*
X2318Y2833D02*
X2460Y2833D01*
D02*
X2318Y2768D02*
X2318Y2833D01*
G54D29*
D02*
X2793Y2626D02*
X2753Y2626D01*
D02*
X2893Y2626D02*
X2853Y2626D01*
D02*
X2851Y2830D02*
X2891Y2830D01*
D02*
X2751Y2830D02*
X2791Y2830D01*
D02*
X2852Y2729D02*
X2892Y2729D01*
D02*
X2752Y2729D02*
X2792Y2729D01*
G54D28*
D02*
X320Y3383D02*
X320Y3109D01*
D02*
X320Y3109D02*
X286Y3109D01*
D02*
X812Y3383D02*
X320Y3383D01*
D02*
X2668Y3250D02*
X2670Y3492D01*
D02*
X812Y3492D02*
X812Y3383D01*
D02*
X2670Y3492D02*
X812Y3492D01*
D02*
X2357Y2940D02*
X2053Y2940D01*
D02*
X2357Y3199D02*
X2357Y2940D01*
D02*
X2039Y2747D02*
X2039Y2926D01*
D02*
X2094Y2747D02*
X2039Y2747D01*
G54D29*
D02*
X2125Y2663D02*
X2125Y2642D01*
D02*
X2125Y2726D02*
X2125Y2705D01*
G54D28*
D02*
X2668Y3090D02*
X2668Y3201D01*
D02*
X2773Y3089D02*
X2668Y3090D01*
D02*
X2898Y3196D02*
X2773Y3089D01*
D02*
X1414Y2516D02*
X1414Y2549D01*
D02*
X695Y2514D02*
X1414Y2516D01*
D02*
X898Y2572D02*
X986Y2572D01*
D02*
X898Y2795D02*
X898Y2572D01*
D02*
X986Y2736D02*
X898Y2795D01*
D02*
X896Y2795D02*
X1377Y2795D01*
D02*
X1377Y3172D02*
X383Y3172D01*
D02*
X1377Y2795D02*
X1377Y3172D01*
D02*
X383Y3172D02*
X382Y3275D01*
D02*
X898Y2795D02*
X896Y2795D01*
D02*
X272Y3504D02*
X272Y3128D01*
D02*
X353Y3504D02*
X272Y3504D01*
D02*
X1539Y2053D02*
X1275Y1609D01*
D02*
X2493Y2053D02*
X1539Y2053D01*
D02*
X2493Y2008D02*
X2493Y2053D01*
D02*
X3048Y1745D02*
X2969Y1747D01*
D02*
X3048Y2048D02*
X3048Y1745D01*
D02*
X3124Y2057D02*
X3048Y2048D01*
D02*
X3009Y2148D02*
X3124Y2157D01*
D02*
X3009Y2139D02*
X3009Y2148D01*
D02*
X1490Y2139D02*
X3009Y2139D01*
D02*
X1474Y2168D02*
X1490Y2139D01*
D02*
X3295Y1938D02*
X3295Y2227D01*
D02*
X3295Y2227D02*
X2824Y2227D01*
D02*
X2824Y2189D02*
X1586Y2189D01*
D02*
X2824Y2227D02*
X2824Y2189D01*
D02*
X3169Y1938D02*
X3295Y1938D01*
D02*
X2493Y1613D02*
X2493Y1653D01*
D02*
X2988Y1613D02*
X2493Y1613D01*
D02*
X3126Y1615D02*
X2988Y1613D01*
D02*
X2700Y1730D02*
X2700Y1947D01*
D02*
X2700Y1947D02*
X2813Y1947D01*
D02*
X3008Y1645D02*
X2628Y1645D01*
G54D29*
D02*
X3573Y1568D02*
X3573Y1528D01*
D02*
X3573Y1768D02*
X3573Y1728D01*
D02*
X3573Y2128D02*
X3573Y2168D01*
G54D28*
D02*
X2902Y1553D02*
X2773Y1569D01*
D02*
X3341Y1898D02*
X3341Y1553D01*
D02*
X3341Y1553D02*
X2902Y1553D01*
D02*
X3543Y1898D02*
X3341Y1898D01*
D02*
X2756Y1847D02*
X2813Y1847D01*
D02*
X2756Y1700D02*
X2756Y1847D01*
G54D30*
X1947Y3333D02*
X2021Y3333D01*
X1947Y3332D02*
X2021Y3332D01*
X1947Y3331D02*
X2021Y3331D01*
X1947Y3330D02*
X2021Y3330D01*
X1947Y3329D02*
X2021Y3329D01*
X1947Y3328D02*
X2021Y3328D01*
X1947Y3327D02*
X2021Y3327D01*
X1947Y3326D02*
X2021Y3326D01*
X1947Y3325D02*
X2021Y3325D01*
X1947Y3324D02*
X2021Y3324D01*
X1947Y3323D02*
X2021Y3323D01*
X1947Y3322D02*
X2021Y3322D01*
X1947Y3321D02*
X2021Y3321D01*
X1947Y3320D02*
X2021Y3320D01*
X1947Y3319D02*
X2021Y3319D01*
X1947Y3318D02*
X2021Y3318D01*
X1947Y3317D02*
X2021Y3317D01*
X1947Y3316D02*
X1981Y3316D01*
X1987Y3316D02*
X2021Y3316D01*
X1947Y3315D02*
X1977Y3315D01*
X1991Y3315D02*
X2021Y3315D01*
X1947Y3314D02*
X1974Y3314D01*
X1994Y3314D02*
X2021Y3314D01*
X1947Y3313D02*
X1973Y3313D01*
X1995Y3313D02*
X2021Y3313D01*
X1947Y3312D02*
X1971Y3312D01*
X1997Y3312D02*
X2021Y3312D01*
X1947Y3311D02*
X1970Y3311D01*
X1998Y3311D02*
X2021Y3311D01*
X1947Y3310D02*
X1969Y3310D01*
X1999Y3310D02*
X2021Y3310D01*
X1947Y3309D02*
X1968Y3309D01*
X2000Y3309D02*
X2021Y3309D01*
X1947Y3308D02*
X1968Y3308D01*
X2000Y3308D02*
X2021Y3308D01*
X1947Y3307D02*
X1967Y3307D01*
X2001Y3307D02*
X2021Y3307D01*
X1947Y3306D02*
X1966Y3306D01*
X2002Y3306D02*
X2021Y3306D01*
X1947Y3305D02*
X1966Y3305D01*
X2002Y3305D02*
X2021Y3305D01*
X1947Y3304D02*
X1965Y3304D01*
X2003Y3304D02*
X2021Y3304D01*
X1947Y3303D02*
X1965Y3303D01*
X2003Y3303D02*
X2021Y3303D01*
X1947Y3302D02*
X1965Y3302D01*
X2003Y3302D02*
X2021Y3302D01*
X1947Y3301D02*
X1964Y3301D01*
X2004Y3301D02*
X2021Y3301D01*
X1947Y3300D02*
X1964Y3300D01*
X2004Y3300D02*
X2021Y3300D01*
X1947Y3299D02*
X1964Y3299D01*
X2004Y3299D02*
X2021Y3299D01*
X1947Y3298D02*
X1964Y3298D01*
X2004Y3298D02*
X2021Y3298D01*
X1947Y3297D02*
X1964Y3297D01*
X2004Y3297D02*
X2021Y3297D01*
X1947Y3296D02*
X1964Y3296D01*
X2004Y3296D02*
X2021Y3296D01*
X1947Y3295D02*
X1964Y3295D01*
X2004Y3295D02*
X2021Y3295D01*
X1947Y3294D02*
X1964Y3294D01*
X2004Y3294D02*
X2021Y3294D01*
X1947Y3293D02*
X1964Y3293D01*
X2004Y3293D02*
X2021Y3293D01*
X1947Y3292D02*
X1964Y3292D01*
X2004Y3292D02*
X2021Y3292D01*
X1947Y3291D02*
X1965Y3291D01*
X2003Y3291D02*
X2021Y3291D01*
X1947Y3290D02*
X1965Y3290D01*
X2003Y3290D02*
X2021Y3290D01*
X1947Y3289D02*
X1965Y3289D01*
X2003Y3289D02*
X2021Y3289D01*
X1947Y3288D02*
X1966Y3288D01*
X2002Y3288D02*
X2021Y3288D01*
X1947Y3287D02*
X1966Y3287D01*
X2002Y3287D02*
X2021Y3287D01*
X1947Y3286D02*
X1967Y3286D01*
X2001Y3286D02*
X2021Y3286D01*
X1947Y3285D02*
X1968Y3285D01*
X2000Y3285D02*
X2021Y3285D01*
X1947Y3284D02*
X1968Y3284D01*
X2000Y3284D02*
X2021Y3284D01*
X1947Y3283D02*
X1969Y3283D01*
X1999Y3283D02*
X2021Y3283D01*
X1947Y3282D02*
X1970Y3282D01*
X1998Y3282D02*
X2021Y3282D01*
X1947Y3281D02*
X1972Y3281D01*
X1996Y3281D02*
X2021Y3281D01*
X1947Y3280D02*
X1973Y3280D01*
X1995Y3280D02*
X2021Y3280D01*
X1947Y3279D02*
X1975Y3279D01*
X1993Y3279D02*
X2021Y3279D01*
X1947Y3278D02*
X1977Y3278D01*
X1991Y3278D02*
X2021Y3278D01*
X1947Y3277D02*
X1983Y3277D01*
X1985Y3277D02*
X2021Y3277D01*
X1947Y3276D02*
X2021Y3276D01*
X1947Y3275D02*
X2021Y3275D01*
X1947Y3274D02*
X2021Y3274D01*
X1947Y3273D02*
X2021Y3273D01*
X1947Y3272D02*
X2021Y3272D01*
X1947Y3271D02*
X2021Y3271D01*
X1947Y3270D02*
X2021Y3270D01*
X1947Y3269D02*
X2021Y3269D01*
X1947Y3268D02*
X2021Y3268D01*
X1947Y3267D02*
X2021Y3267D01*
X1947Y3266D02*
X2021Y3266D01*
X1947Y3265D02*
X2021Y3265D01*
X1947Y3264D02*
X2021Y3264D01*
X1947Y3263D02*
X2021Y3263D01*
X1947Y3262D02*
X2021Y3262D01*
X1947Y3261D02*
X2021Y3261D01*
X1948Y3260D02*
X2020Y3260D01*
X1948Y3235D02*
X2020Y3235D01*
X1947Y3234D02*
X2021Y3234D01*
X1947Y3233D02*
X2021Y3233D01*
X1947Y3232D02*
X2021Y3232D01*
X1947Y3231D02*
X2021Y3231D01*
X1947Y3230D02*
X2021Y3230D01*
X1947Y3229D02*
X2021Y3229D01*
X1947Y3228D02*
X2021Y3228D01*
X1947Y3227D02*
X2021Y3227D01*
X1947Y3226D02*
X2021Y3226D01*
X1947Y3225D02*
X2021Y3225D01*
X1947Y3224D02*
X2021Y3224D01*
X1947Y3223D02*
X2021Y3223D01*
X1947Y3222D02*
X2021Y3222D01*
X1947Y3221D02*
X2021Y3221D01*
X1947Y3220D02*
X2021Y3220D01*
X1947Y3219D02*
X2021Y3219D01*
X1947Y3218D02*
X2021Y3218D01*
X1947Y3217D02*
X1978Y3217D01*
X1990Y3217D02*
X2021Y3217D01*
X1947Y3216D02*
X1975Y3216D01*
X1993Y3216D02*
X2021Y3216D01*
X1947Y3215D02*
X1973Y3215D01*
X1995Y3215D02*
X2021Y3215D01*
X1947Y3214D02*
X1972Y3214D01*
X1996Y3214D02*
X2021Y3214D01*
X1947Y3213D02*
X1971Y3213D01*
X1997Y3213D02*
X2021Y3213D01*
X1947Y3212D02*
X1970Y3212D01*
X1998Y3212D02*
X2021Y3212D01*
X1947Y3211D02*
X1969Y3211D01*
X1999Y3211D02*
X2021Y3211D01*
X1947Y3210D02*
X1968Y3210D01*
X2000Y3210D02*
X2021Y3210D01*
X1947Y3209D02*
X1967Y3209D01*
X2001Y3209D02*
X2021Y3209D01*
X1947Y3208D02*
X1967Y3208D01*
X2001Y3208D02*
X2021Y3208D01*
X1947Y3207D02*
X1966Y3207D01*
X2002Y3207D02*
X2021Y3207D01*
X1947Y3206D02*
X1965Y3206D01*
X2003Y3206D02*
X2021Y3206D01*
X1947Y3205D02*
X1965Y3205D01*
X2003Y3205D02*
X2021Y3205D01*
X1947Y3204D02*
X1965Y3204D01*
X2003Y3204D02*
X2021Y3204D01*
X1947Y3203D02*
X1964Y3203D01*
X2004Y3203D02*
X2021Y3203D01*
X1947Y3202D02*
X1964Y3202D01*
X2004Y3202D02*
X2021Y3202D01*
X1947Y3201D02*
X1964Y3201D01*
X2004Y3201D02*
X2021Y3201D01*
X1947Y3200D02*
X1964Y3200D01*
X2004Y3200D02*
X2021Y3200D01*
X1947Y3199D02*
X1964Y3199D01*
X2004Y3199D02*
X2021Y3199D01*
X1947Y3198D02*
X1964Y3198D01*
X2004Y3198D02*
X2021Y3198D01*
X1947Y3197D02*
X1964Y3197D01*
X2004Y3197D02*
X2021Y3197D01*
X1947Y3196D02*
X1964Y3196D01*
X2004Y3196D02*
X2021Y3196D01*
X1947Y3195D02*
X1964Y3195D01*
X2004Y3195D02*
X2021Y3195D01*
X1947Y3194D02*
X1964Y3194D01*
X2004Y3194D02*
X2021Y3194D01*
X1947Y3193D02*
X1965Y3193D01*
X2003Y3193D02*
X2021Y3193D01*
X1947Y3192D02*
X1965Y3192D01*
X2003Y3192D02*
X2021Y3192D01*
X1947Y3191D02*
X1965Y3191D01*
X2003Y3191D02*
X2021Y3191D01*
X1947Y3190D02*
X1966Y3190D01*
X2002Y3190D02*
X2021Y3190D01*
X1947Y3189D02*
X1966Y3189D01*
X2002Y3189D02*
X2021Y3189D01*
X1947Y3188D02*
X1967Y3188D01*
X2001Y3188D02*
X2021Y3188D01*
X1947Y3187D02*
X1967Y3187D01*
X2001Y3187D02*
X2021Y3187D01*
X1947Y3186D02*
X1968Y3186D01*
X2000Y3186D02*
X2021Y3186D01*
X1947Y3185D02*
X1969Y3185D01*
X1999Y3185D02*
X2021Y3185D01*
X1947Y3184D02*
X1970Y3184D01*
X1998Y3184D02*
X2021Y3184D01*
X1947Y3183D02*
X1971Y3183D01*
X1997Y3183D02*
X2021Y3183D01*
X1947Y3182D02*
X1972Y3182D01*
X1996Y3182D02*
X2021Y3182D01*
X1947Y3181D02*
X1974Y3181D01*
X1994Y3181D02*
X2021Y3181D01*
X1947Y3180D02*
X1976Y3180D01*
X1992Y3180D02*
X2021Y3180D01*
X1947Y3179D02*
X1979Y3179D01*
X1989Y3179D02*
X2021Y3179D01*
X1947Y3178D02*
X2021Y3178D01*
X1947Y3177D02*
X2021Y3177D01*
X1947Y3176D02*
X2021Y3176D01*
X1947Y3175D02*
X2021Y3175D01*
X1947Y3174D02*
X2021Y3174D01*
X1947Y3173D02*
X2021Y3173D01*
X1947Y3172D02*
X2021Y3172D01*
X1947Y3171D02*
X2021Y3171D01*
X1947Y3170D02*
X2021Y3170D01*
X1947Y3169D02*
X2021Y3169D01*
X1947Y3168D02*
X2021Y3168D01*
X1947Y3167D02*
X2021Y3167D01*
X1947Y3166D02*
X2021Y3166D01*
X1947Y3165D02*
X2021Y3165D01*
X1947Y3164D02*
X2021Y3164D01*
X1947Y3163D02*
X2021Y3163D01*
X1947Y3162D02*
X2021Y3162D01*
X1947Y3136D02*
X2021Y3136D01*
X1947Y3135D02*
X2021Y3135D01*
X1947Y3134D02*
X2021Y3134D01*
X1947Y3133D02*
X2021Y3133D01*
X1947Y3132D02*
X2021Y3132D01*
X1947Y3131D02*
X2021Y3131D01*
X1947Y3130D02*
X2021Y3130D01*
X1947Y3129D02*
X2021Y3129D01*
X1947Y3128D02*
X2021Y3128D01*
X1947Y3127D02*
X2021Y3127D01*
X1947Y3126D02*
X2021Y3126D01*
X1947Y3125D02*
X2021Y3125D01*
X1947Y3124D02*
X2021Y3124D01*
X1947Y3123D02*
X2021Y3123D01*
X1947Y3122D02*
X2021Y3122D01*
X1947Y3121D02*
X2021Y3121D01*
X1947Y3120D02*
X2021Y3120D01*
X1947Y3119D02*
X1980Y3119D01*
X1988Y3119D02*
X2021Y3119D01*
X1947Y3118D02*
X1976Y3118D01*
X1992Y3118D02*
X2021Y3118D01*
X1947Y3117D02*
X1974Y3117D01*
X1994Y3117D02*
X2021Y3117D01*
X1947Y3116D02*
X1972Y3116D01*
X1996Y3116D02*
X2021Y3116D01*
X1947Y3115D02*
X1971Y3115D01*
X1997Y3115D02*
X2021Y3115D01*
X1947Y3114D02*
X1970Y3114D01*
X1998Y3114D02*
X2021Y3114D01*
X1947Y3113D02*
X1969Y3113D01*
X1999Y3113D02*
X2021Y3113D01*
X1947Y3112D02*
X1968Y3112D01*
X2000Y3112D02*
X2021Y3112D01*
X1947Y3111D02*
X1967Y3111D01*
X2001Y3111D02*
X2021Y3111D01*
X1947Y3110D02*
X1967Y3110D01*
X2001Y3110D02*
X2021Y3110D01*
X1947Y3109D02*
X1966Y3109D01*
X2002Y3109D02*
X2021Y3109D01*
X1947Y3108D02*
X1966Y3108D01*
X2002Y3108D02*
X2021Y3108D01*
X1947Y3107D02*
X1965Y3107D01*
X2003Y3107D02*
X2021Y3107D01*
X1947Y3106D02*
X1965Y3106D01*
X2003Y3106D02*
X2021Y3106D01*
X1947Y3105D02*
X1965Y3105D01*
X2003Y3105D02*
X2021Y3105D01*
X1947Y3104D02*
X1964Y3104D01*
X2004Y3104D02*
X2021Y3104D01*
X1947Y3103D02*
X1964Y3103D01*
X2004Y3103D02*
X2021Y3103D01*
X1947Y3102D02*
X1964Y3102D01*
X2004Y3102D02*
X2021Y3102D01*
X1947Y3101D02*
X1964Y3101D01*
X2004Y3101D02*
X2021Y3101D01*
X1947Y3100D02*
X1964Y3100D01*
X2004Y3100D02*
X2021Y3100D01*
X1947Y3099D02*
X1964Y3099D01*
X2004Y3099D02*
X2021Y3099D01*
X1947Y3098D02*
X1964Y3098D01*
X2004Y3098D02*
X2021Y3098D01*
X1947Y3097D02*
X1964Y3097D01*
X2004Y3097D02*
X2021Y3097D01*
X1947Y3096D02*
X1964Y3096D01*
X2004Y3096D02*
X2021Y3096D01*
X1947Y3095D02*
X1964Y3095D01*
X2004Y3095D02*
X2021Y3095D01*
X1947Y3094D02*
X1965Y3094D01*
X2003Y3094D02*
X2021Y3094D01*
X1947Y3093D02*
X1965Y3093D01*
X2003Y3093D02*
X2021Y3093D01*
X1947Y3092D02*
X1965Y3092D01*
X2003Y3092D02*
X2021Y3092D01*
X1947Y3091D02*
X1966Y3091D01*
X2002Y3091D02*
X2021Y3091D01*
X1947Y3090D02*
X1967Y3090D01*
X2002Y3090D02*
X2021Y3090D01*
X1947Y3089D02*
X1967Y3089D01*
X2001Y3089D02*
X2021Y3089D01*
X1947Y3088D02*
X1968Y3088D01*
X2000Y3088D02*
X2021Y3088D01*
X1947Y3087D02*
X1969Y3087D01*
X1999Y3087D02*
X2021Y3087D01*
X1947Y3086D02*
X1969Y3086D01*
X1999Y3086D02*
X2021Y3086D01*
X1947Y3085D02*
X1971Y3085D01*
X1997Y3085D02*
X2021Y3085D01*
X1947Y3084D02*
X1972Y3084D01*
X1996Y3084D02*
X2021Y3084D01*
X1947Y3083D02*
X1973Y3083D01*
X1995Y3083D02*
X2021Y3083D01*
X1947Y3082D02*
X1975Y3082D01*
X1993Y3082D02*
X2021Y3082D01*
X1947Y3081D02*
X1978Y3081D01*
X1990Y3081D02*
X2021Y3081D01*
X1947Y3080D02*
X2021Y3080D01*
X1947Y3079D02*
X2021Y3079D01*
X1947Y3078D02*
X2021Y3078D01*
X1947Y3077D02*
X2021Y3077D01*
X1947Y3076D02*
X2021Y3076D01*
X1947Y3075D02*
X2021Y3075D01*
X1947Y3074D02*
X2021Y3074D01*
X1947Y3073D02*
X2021Y3073D01*
X1947Y3072D02*
X2021Y3072D01*
X1947Y3071D02*
X2021Y3071D01*
X1947Y3070D02*
X2021Y3070D01*
X1947Y3069D02*
X2021Y3069D01*
X1947Y3068D02*
X2021Y3068D01*
X1947Y3067D02*
X2021Y3067D01*
X1947Y3066D02*
X2021Y3066D01*
X1947Y3065D02*
X2021Y3065D01*
X1947Y3064D02*
X2021Y3064D01*
X1948Y3063D02*
X2020Y3063D01*
D02*
G04 End of Copper1*
M02*